<?xml version="1.0" standalone="no"?>
<!DOCTYPE svg PUBLIC "-//W3C//DTD SVG 20010904//EN"
 "http://www.w3.org/TR/2001/REC-SVG-20010904/DTD/svg10.dtd">
<svg version="1.0" xmlns="http://www.w3.org/2000/svg"
 width="251.000000pt" height="251.000000pt" viewBox="0 0 251.000000 251.000000"
 preserveAspectRatio="xMidYMid meet">
<metadata>
Created by potrace 1.11, written by Peter Selinger 2001-2013
</metadata>
<g transform="translate(0.000000,251.000000) scale(0.100000,-0.100000)"
fill="#000000" stroke="none">
<path d="M1050 2495 c-448 -70 -839 -403 -985 -838 -49 -148 -58 -210 -58
-402 0 -192 9 -254 58 -402 148 -439 540 -770 995 -839 570 -86 1115 221 1343
756 19 47 39 97 42 112 l7 28 -213 0 -214 0 -33 -63 c-152 -285 -475 -464
-800 -444 -214 14 -402 98 -552 249 -288 287 -334 746 -109 1082 239 358 701
485 1084 297 272 -134 438 -373 480 -693 l6 -48 -295 0 c-163 0 -296 2 -296 4
0 2 74 64 165 136 91 73 164 134 163 136 -2 1 -304 -95 -672 -214 l-668 -217
238 -5 238 -5 -85 -77 -84 -78 832 0 832 0 13 58 c19 85 16 387 -5 480 -55
240 -159 438 -320 608 -287 304 -696 443 -1107 379z"/>
</g>
</svg>
